<svg version="1.2" xmlns="http://www.w3.org/2000/svg" viewBox="13 6 519 150" width="519" height="150">
	<title>Logo_smallerhead_v1</title>
	<defs>
		<clipPath clipPathUnits="userSpaceOnUse" id="cp1">
			<path d="m70.86 114.37c-3.06 0-6.13-0.12-9.18 0.03-5.68 0.26-7.97 2.1-9.39 7.61-0.48 1.87-0.81 3.87-0.7 5.78 0.23 4.09 0.73 8.16 1.21 12.23 0.72 6.05 4.28 9.42 10.18 10.58q10.43 2.05 20.8-0.18c5.25-1.12 9.23-3.98 11.15-9.1 2.16-5.79 3.15-11.87 3.73-18.01 0.19-2.02-0.62-3.71-2.4-4.7-1.57-0.87-3.23-1.67-4.95-2.2-6.66-2.04-13.55-2.25-20.45-2.04z"/>
		</clipPath>
		<clipPath clipPathUnits="userSpaceOnUse" id="cp2">
			<path d="m126.59 116.41c-1.72 0.53-3.38 1.32-4.95 2.2-1.78 0.99-2.59 2.68-2.4 4.7 0.58 6.14 1.57 12.21 3.73 18.01 1.91 5.12 5.9 7.98 11.15 9.1q10.37 2.23 20.8 0.18c5.91-1.16 9.46-4.53 10.18-10.58 0.49-4.07 0.99-8.14 1.21-12.23 0.11-1.91-0.22-3.91-0.7-5.78-1.42-5.51-3.71-7.34-9.39-7.61-3.05-0.14-6.12-0.03-9.18-0.03-6.9-0.21-13.79 0-20.45 2.04z"/>
		</clipPath>
	</defs>
	<style>
		.s0 { fill: #565758 } 
		.s1 { fill: #4a494a } 
		.s2 { fill: #8f8e87 } 
		.s3 { fill: #000000 } 
		.s4 { fill: #494949 } 
		.s5 { fill: #d1d3d4 } 
	</style>
	<g id="Layer 1">
		<path class="s0" d="m166.7 79.5l-4.3-46.7c-1-11.9-21-21.6-46.8-21.6l-12.8 0.1c-25.8 0-45.8 9.6-46.8 21.5l-4.3 46.7"/>
		<path class="s1" d="m165.4 98.7c28.5 0 36.9-10.1 36.9-15.9 0-5.7-16.5-9.8-36.9-9.8h-115.4c-20.3 0-36.8 4.1-36.8 9.8 0 5.8 8.3 15.9 36.8 15.9z"/>
		<path class="s2" d="m52 79v-10.3c0-7.9 25.6-14.2 57.1-14.2 31.5 0 57.1 6.4 57.1 14.2v10.3z"/>
		<path class="s1" d="m165.4 93.9c28.5 0 36.9-5.3 36.9-11.1 0-5.7-16.5-9.8-36.9-9.8h-115.4c-20.3 0-36.8 4.1-36.8 9.8 0 5.8 8.3 11.1 36.8 11.1z"/>
		<path class="s0" d="m15.6 87.7c6.5-2.8 18.8-4.5 33-4.5h118.2c14.2 0 26.6 1.7 33 4.5 1.8-1.5 2.5-3.2 2.5-4.9 0-5.7-16.5-9.8-36.9-9.8h-115.4c-20.3 0-36.8 4.1-36.8 9.8 0 1.7 0.7 3.4 2.4 4.9z"/>
		<g id="_x39_0XsGm.tif">
			<g>
				<path class="s3" d="m107.8 122.8c-2.5 0.3-4.2 0.6-5 3.8-1 4.2-1.9 8.5-2.9 12.7-0.4 1.5-1 3.1-1.7 4.5-2.4 5-6 8.4-11.6 9.7-8.2 1.7-16.4 2.4-24.6 0.7-1.5-0.3-3-0.8-4.4-1.2-4.3-1.3-7-4.2-8-8.4-1-4.4-1.7-8.9-2.6-13.4q-0.7-3.2-1.5-6.4c-0.4-1.6-1.3-2.9-3-3.5-1.3-0.5-2-1.4-1.8-2.9 0.1-1.2 0-2.5 0-3.8 0-1.6 0.5-2.3 2.1-2.5 2.9-0.4 5.9-0.9 8.8-1.1 4.7-0.3 9.5-0.6 14.2-0.6 11 0 21.9 1.2 32.6 3.5q5.2 1.1 10.3 1.1h0.5q5.1 0 10.3-1.1c10.7-2.4 21.6-3.5 32.6-3.5 4.7 0 9.5 0.3 14.2 0.6 3 0.2 5.9 0.7 8.9 1.1 1.5 0.2 2 0.9 2 2.5 0 1.3-0.1 2.6 0.1 3.8 0.1 1.5-0.6 2.4-1.9 2.9-1.7 0.6-2.6 1.9-3 3.5q-0.8 3.2-1.5 6.4c-0.9 4.5-1.5 9-2.6 13.4-1 4.2-3.6 7.1-7.9 8.4-1.5 0.4-3 0.9-4.5 1.2-8.2 1.7-16.4 1.1-24.6-0.7-5.5-1.3-9.2-4.7-11.5-9.7-0.7-1.4-1.3-3-1.7-4.5-1.1-4.2-2-8.5-3-12.7-0.8-3.2-2.4-3.5-5-3.8-1.1-0.1-2.3 0-2.3 0zm-36.9-8.4c-3.1 0-6.2-0.1-9.2 0-5.7 0.3-8 2.1-9.4 7.6-0.5 1.9-0.8 3.9-0.7 5.8 0.2 4.1 0.7 8.2 1.2 12.2 0.7 6.1 4.3 9.4 10.2 10.6q10.4 2 20.8-0.2c5.2-1.1 9.2-4 11.1-9.1 2.2-5.8 3.2-11.8 3.8-18 0.2-2-0.7-3.7-2.4-4.7-1.6-0.9-3.3-1.7-5-2.2-6.6-2-13.5-2.2-20.4-2zm55.7 2c-1.7 0.5-3.4 1.3-5 2.2-1.7 1-2.6 2.7-2.4 4.7 0.6 6.1 1.6 12.2 3.8 18 1.9 5.1 5.9 8 11.1 9.1q10.4 2.2 20.8 0.2c5.9-1.2 9.5-4.5 10.2-10.6 0.5-4.1 1-8.1 1.2-12.2 0.1-1.9-0.2-3.9-0.7-5.8-1.4-5.5-3.7-7.3-9.4-7.6-3-0.1-6.1 0-9.2 0-6.9-0.2-13.8 0-20.4 2z"/>
			</g>
		</g>
		<g id="Johhny">
			<g id="H">
			</g>
		</g>
		<g id="Johhny_00000128486407641838953660000013141236359391329702_">
			<g id="H_00000117645559217675226150000009167580748348355507_">
				<path id="The Beuschers" class="s3" aria-label="The
Beuschers"  d="m238.5 58h-5.6v-30.8h-10.1v-5.3h26.1v5.3h-10.4zm46.5 0h-5.6v-36.1h5.6zm-23.6 0h-5.6v-36.2h5.6zm20.5-15.3h-23.7v-5.4h23.7zm36 15.4h-22.8v-36.2h22.8v5.4h-17.2v25.4h17.2zm-2.9-15.9h-17.4v-5.3h17.4zm-73.3 67.8h-15.6v-36.1h15q3.5 0 5.9 1 2.3 1.1 3.5 3.1 1.3 2 1.3 5 0 2.9-1.7 5-1.6 2-4.5 2.8v-1q2.5 0.5 4.3 1.8 1.8 1.3 2.8 3.3 1 2 1 4.5 0 2.6-0.8 4.6-0.8 2-2.4 3.3-1.6 1.3-3.8 2.1-2.2 0.6-5 0.6zm-10.1-15.8v10.5h9.7q2.2 0 3.6-0.7 1.5-0.6 2.3-1.8 0.8-1.2 0.8-2.9 0-1.6-0.9-2.7-0.8-1.2-2.3-1.7-1.6-0.7-3.7-0.7zm0-14.9v9.6h9.2q1.5 0 2.7-0.7 1.3-0.6 1.9-1.7 0.7-1 0.7-2.4 0-2.4-1.5-3.6-1.6-1.2-4.4-1.2zm52.3 30.7h-22.8v-36.1h22.8v5.4h-17.2v25.4h17.2zm-2.8-15.9h-17.4v-5.4h17.4zm25.8 16.2q-4.2 0-7.5-1.8-3.3-1.9-5.2-5.1-1.9-3.2-1.9-7.3v-22.3h5.6v21.8q0 2.7 1.2 4.8 1.3 2.1 3.3 3.3 2.1 1.2 4.5 1.2 2.6 0 4.6-1.2 2.2-1.2 3.4-3.3 1.2-2.1 1.2-4.8v-21.8h5.4v22.3q0 4.1-2 7.3-1.8 3.2-5.1 5.1-3.3 1.8-7.5 1.8zm34.8 0.2q-3 0-5.5-0.8-2.5-0.7-4.5-2.3-2-1.6-3.6-3.9l3.8-4.4q2.5 3.6 4.8 5 2.4 1.4 5.6 1.4 1.9 0 3.5-0.6 1.6-0.6 2.6-1.7 0.9-1.1 0.9-2.5 0-0.9-0.3-1.8-0.3-0.8-1-1.5-0.6-0.6-1.7-1.2-0.9-0.6-2.3-1-1.3-0.4-3.1-0.8-2.8-0.5-4.8-1.4-2.1-1-3.5-2.4-1.4-1.4-2.1-3.1-0.6-1.8-0.6-4 0-2.2 0.9-4.1 1-1.8 2.6-3.2 1.7-1.4 4-2.1 2.3-0.8 4.9-0.8 2.8 0 5.1 0.8 2.3 0.7 4.2 2.1 1.8 1.4 2.9 3.5l-3.9 3.9q-1-1.7-2.3-2.9-1.3-1.2-2.8-1.7-1.6-0.7-3.3-0.7-2.1 0-3.6 0.7-1.5 0.6-2.3 1.7-0.9 1.1-0.9 2.6 0 1.1 0.5 2 0.4 0.9 1.2 1.6 0.9 0.7 2.3 1.2 1.5 0.6 3.5 1 2.8 0.6 5 1.6 2.3 0.9 3.8 2.2 1.6 1.3 2.3 2.9 0.9 1.6 0.9 3.5 0 3.4-1.6 5.9-1.6 2.6-4.6 4-2.9 1.3-7 1.3zm35.7 0q-3.7 0-6.9-1.3-3.1-1.4-5.5-3.9-2.3-2.5-3.6-5.9-1.2-3.4-1.2-7.5 0-3.9 1.3-7.2 1.4-3.3 3.8-5.8 2.5-2.6 5.7-4 3.2-1.4 6.9-1.4 2.6 0 5.1 0.9 2.5 0.7 4.5 2.2 2.1 1.4 3.4 3.2l-3.7 3.9q-1.5-1.5-3.1-2.5-1.5-1.1-3.1-1.6-1.5-0.5-3.1-0.5-2.5 0-4.8 1-2.1 0.9-3.8 2.6-1.6 1.7-2.5 4.1-0.9 2.3-0.9 5.1 0 3 0.8 5.4 1 2.4 2.6 4.1 1.7 1.7 3.9 2.6 2.4 0.9 5.2 0.9 1.7 0 3.3-0.5 1.7-0.5 3.1-1.3 1.4-0.9 2.6-2.1l2.8 4.6q-1.2 1.3-3.2 2.5-2 1.1-4.6 1.8-2.4 0.6-5 0.6zm49.6-0.5h-5.6v-36.2h5.6zm-23.6 0h-5.6v-36.1h5.6zm20.5-15.3h-23.7v-5.4h23.7zm36 15.3h-22.8v-36.1h22.8v5.4h-17.2v25.4h17.2zm-2.9-15.9h-17.4v-5.4h17.4zm17.4 15.9h-5.6v-36.1h15.4q3.1 0 5.7 1.5 2.6 1.5 4.2 4.1 1.5 2.6 1.5 5.9 0 2.9-1.5 5.4-1.6 2.6-4.2 4.1-2.6 1.5-5.7 1.5h-9.8zm22.7 0.1l-6.8-0.1-9.2-16.3 5.7-1.3zm-22.6-30.8v11.8h10.3q1.5 0 2.7-0.7 1.2-0.8 1.8-2.1 0.7-1.3 0.7-2.9 0-1.8-0.9-3.2-0.8-1.4-2.3-2.1-1.5-0.8-3.5-0.8zm41.5 31.3q-2.9 0-5.5-0.8-2.4-0.8-4.5-2.3-2-1.6-3.6-3.9l3.8-4.4q2.5 3.6 4.9 5 2.3 1.4 5.5 1.4 1.9 0 3.5-0.7 1.6-0.6 2.6-1.7 0.9-1 0.9-2.4 0-1-0.3-1.8-0.3-0.8-1-1.5-0.6-0.7-1.6-1.2-1-0.6-2.4-1-1.3-0.5-3.1-0.8-2.8-0.6-4.8-1.5-2.1-0.9-3.5-2.3-1.4-1.4-2-3.2-0.7-1.8-0.7-4 0-2.2 0.9-4 1-1.9 2.6-3.2 1.7-1.4 4-2.1 2.3-0.8 4.9-0.8 2.8 0 5.1 0.7 2.4 0.7 4.2 2.2 1.8 1.4 3 3.4l-4 3.9q-1-1.7-2.3-2.8-1.3-1.2-2.8-1.8-1.6-0.6-3.3-0.6-2 0-3.5 0.6-1.5 0.6-2.4 1.8-0.8 1.1-0.8 2.6 0 1 0.4 2 0.4 0.9 1.2 1.6 0.9 0.6 2.3 1.2 1.5 0.5 3.5 0.9 2.8 0.7 5.1 1.6 2.2 1 3.7 2.3 1.6 1.3 2.3 2.9 0.9 1.6 0.9 3.4 0 3.5-1.6 6-1.6 2.5-4.6 3.9-2.9 1.4-7 1.4z"/>
				<path id="Real Estate Brokers" class="s4" aria-label="Real Estate Brokers"  d="m228.5 147h-2.9v-18.5h7.9q1.6 0 2.9 0.8 1.4 0.7 2.2 2.1 0.8 1.3 0.8 3 0 1.5-0.8 2.8-0.8 1.3-2.2 2.1-1.3 0.7-2.9 0.7h-5zm11.6 0.1l-3.5-0.1-4.7-8.3 3-0.7zm-11.7-15.8v6.1h5.3q0.8 0 1.4-0.4 0.6-0.4 1-1.1 0.3-0.7 0.3-1.5 0-0.9-0.5-1.6-0.4-0.7-1.2-1.1-0.7-0.4-1.7-0.4zm27.2 15.8h-11.7v-18.6h11.7v2.8h-8.8v13h8.8zm-1.4-8.1h-9v-2.8h9zm7 8.2h-2.9l7.1-18.6h2.9l7.2 18.6h-3.1l-4.2-11.2q-0.1-0.2-0.3-0.9-0.2-0.7-0.5-1.6-0.3-0.9-0.6-1.6-0.2-0.7-0.3-0.9l0.6-0.1q-0.1 0.5-0.4 1.2-0.2 0.7-0.4 1.4-0.3 0.8-0.5 1.5-0.3 0.6-0.4 1.1zm10.9-4.6h-10.7l1.1-2.8h8.4zm18.2 4.6h-11.6v-18.5h2.9v15.8h8.7zm23.4 0h-11.7v-18.6h11.7v2.8h-8.8v13h8.8zm-1.5-8.1h-8.9v-2.8h8.9zm11.8 8.4q-1.5 0-2.8-0.4-1.3-0.4-2.4-1.1-1-0.9-1.8-2.1l2-2.2q1.3 1.8 2.4 2.6 1.2 0.7 2.9 0.7 1 0 1.8-0.3 0.8-0.4 1.3-0.9 0.5-0.6 0.5-1.3 0-0.5-0.2-0.9-0.1-0.4-0.5-0.8-0.3-0.3-0.8-0.6-0.5-0.3-1.2-0.5-0.7-0.2-1.6-0.4-1.4-0.3-2.5-0.8-1.1-0.4-1.8-1.2-0.7-0.7-1-1.6-0.4-0.9-0.4-2 0-1.1 0.5-2.1 0.5-1 1.3-1.6 0.9-0.8 2.1-1.1 1.2-0.4 2.5-0.4 1.4 0 2.6 0.3 1.2 0.4 2.1 1.2 1 0.7 1.6 1.7l-2 2q-0.6-0.9-1.2-1.4-0.7-0.6-1.5-0.9-0.8-0.4-1.7-0.4-1 0-1.8 0.4-0.7 0.3-1.2 0.9-0.4 0.5-0.4 1.3 0 0.5 0.2 1 0.2 0.5 0.6 0.8 0.5 0.4 1.2 0.7 0.8 0.2 1.8 0.5 1.5 0.3 2.6 0.8 1.1 0.4 1.9 1.1 0.8 0.7 1.2 1.5 0.4 0.8 0.4 1.8 0 1.7-0.8 3-0.8 1.3-2.3 2.1-1.5 0.6-3.6 0.6zm17.2-0.2h-2.9v-15.8h-5.2v-2.8h13.4v2.8h-5.3zm8.5 0h-2.9l7.2-18.5h2.9l7.1 18.5h-3l-4.3-11.2q-0.1-0.2-0.3-0.9-0.2-0.7-0.5-1.6-0.3-0.8-0.5-1.6-0.3-0.7-0.3-0.9h0.6q-0.2 0.4-0.4 1.1-0.2 0.7-0.5 1.5-0.2 0.7-0.5 1.4-0.2 0.7-0.4 1.1zm11-4.6h-10.7l1-2.7h8.5zm11.6 4.6h-2.8v-15.8h-5.2v-2.8h13.4v2.8h-5.4zm20.6 0h-11.7v-18.6h11.7v2.8h-8.8v13h8.8zm-1.5-8.1h-8.9v-2.8h8.9zm21.5 8.2h-8v-18.6h7.7q1.8 0 3 0.6 1.2 0.5 1.8 1.6 0.7 1 0.7 2.5 0 1.5-0.9 2.6-0.8 1-2.3 1.4v-0.5q1.3 0.3 2.2 0.9 0.9 0.7 1.4 1.7 0.5 1 0.5 2.3 0 1.3-0.4 2.4-0.4 1-1.2 1.7-0.8 0.7-1.9 1-1.2 0.4-2.6 0.4zm-5.2-8.1v5.3h5q1.1 0 1.8-0.3 0.8-0.3 1.2-0.9 0.4-0.7 0.4-1.5 0-0.9-0.4-1.4-0.4-0.6-1.2-0.9-0.8-0.3-1.9-0.3zm0-7.7v4.9h4.7q0.8 0 1.4-0.3 0.6-0.3 1-0.9 0.3-0.5 0.3-1.3 0-1.1-0.7-1.8-0.8-0.6-2.3-0.6zm18 15.8h-2.9v-18.6h7.9q1.6 0 3 0.8 1.3 0.8 2.1 2.1 0.8 1.4 0.8 3 0 1.5-0.8 2.8-0.8 1.3-2.1 2.1-1.3 0.8-3 0.8h-5zm11.6 0h-3.4l-4.7-8.4 2.9-0.6zm-11.6-15.8v6h5.3q0.7 0 1.3-0.3 0.6-0.4 1-1.1 0.3-0.7 0.3-1.5 0-0.9-0.4-1.6-0.4-0.7-1.2-1.1-0.8-0.4-1.8-0.4zm23.1 16q-2 0-3.7-0.7-1.6-0.7-2.9-2-1.2-1.3-1.9-3-0.6-1.8-0.6-3.8 0-2.1 0.6-3.8 0.7-1.8 1.9-3 1.3-1.3 2.9-2 1.7-0.8 3.7-0.8 1.9 0 3.6 0.8 1.6 0.7 2.9 2 1.2 1.3 1.9 3 0.6 1.7 0.6 3.8 0 2-0.6 3.8-0.7 1.7-1.9 3-1.3 1.3-2.9 2-1.7 0.7-3.6 0.7zm0-2.8q1.3 0 2.4-0.5 1.2-0.5 2-1.4 0.8-0.9 1.3-2.1 0.4-1.3 0.4-2.7 0-1.5-0.4-2.7-0.5-1.2-1.3-2.1-0.8-1-2-1.5-1.1-0.5-2.4-0.5-1.4 0-2.5 0.5-1.1 0.5-2 1.4-0.8 0.9-1.3 2.2-0.4 1.2-0.4 2.7 0 1.4 0.4 2.7 0.5 1.2 1.3 2.1 0.9 0.9 2 1.4 1.1 0.5 2.5 0.5zm28.6-16l-13.3 12.9-0.2-3.2 9.8-9.7zm-12.9 18.5h-2.8v-18.5h2.8zm13 0h-3.6l-7.1-9.5 2.2-1.8zm15.2 0h-11.7v-18.5h11.7v2.7h-8.9v13h8.9zm-1.5-8.1h-8.9v-2.7h8.9zm8.9 8.1h-2.9v-18.6h7.9q1.6 0 3 0.8 1.3 0.8 2.1 2.2 0.8 1.3 0.8 3 0 1.5-0.8 2.8-0.8 1.3-2.1 2.1-1.3 0.7-3 0.7h-5zm11.6 0h-3.4l-4.7-8.3 2.9-0.7zm-11.6-15.8v6h5.3q0.7 0 1.3-0.3 0.6-0.4 1-1.1 0.3-0.7 0.3-1.5 0-0.9-0.4-1.6-0.4-0.7-1.2-1.1-0.8-0.4-1.8-0.4zm21.3 16q-1.5 0-2.8-0.4-1.3-0.4-2.3-1.2-1.1-0.8-1.9-2l2-2.2q1.3 1.8 2.4 2.5 1.2 0.8 2.9 0.8 1 0 1.8-0.4 0.8-0.3 1.3-0.8 0.5-0.6 0.5-1.3 0-0.5-0.2-0.9-0.1-0.4-0.5-0.8-0.3-0.3-0.8-0.6-0.5-0.3-1.2-0.5-0.7-0.2-1.6-0.4-1.4-0.3-2.5-0.8-1.1-0.5-1.8-1.2-0.7-0.7-1-1.6-0.4-0.9-0.4-2 0-1.2 0.5-2.1 0.5-1 1.4-1.7 0.8-0.7 2-1 1.2-0.4 2.5-0.4 1.4 0 2.6 0.3 1.2 0.4 2.1 1.1 1 0.8 1.6 1.8l-2 2q-0.6-0.9-1.2-1.5-0.7-0.6-1.5-0.9-0.8-0.3-1.7-0.3-1 0-1.8 0.3-0.7 0.4-1.2 0.9-0.4 0.6-0.4 1.4 0 0.5 0.2 1 0.2 0.5 0.6 0.8 0.5 0.4 1.2 0.7 0.8 0.2 1.8 0.4 1.5 0.4 2.6 0.9 1.1 0.4 1.9 1.1 0.8 0.7 1.2 1.5 0.4 0.8 0.4 1.8 0 1.7-0.8 3-0.8 1.3-2.3 2-1.5 0.7-3.6 0.7z"/>
			</g>
			<g id="Y_00000084527942828549346010000000361820412481018812_">
			</g>
		</g>
		<g>
			<g id="Clip-Path" clip-path="url(#cp1)">
				<path class="s5" d="m95.3 141.9h-1.7v-4.3l-1.4-1.4h-0.7l-1.3 1.4v4.1l-1.2-1.1v-2.2l-0.9-1h-2.6v3.7h-0.5v-8.1l-3.5-0.6-0.7 0.6v8.6h-5.7v-2.9h-2v-0.6h-1.2v0.6h-1.1v2.9h-2.2v2.4l-0.7-1.7h-4.2l-0.6 1.1c0 0-0.8 0.3-0.8 0 0-0.3 0-2.2 0-2.2l-0.8-0.8v-1.3h-2.3v1.9h-1.7v1.3h-1v-5.5h-1.6v5.9h-1l-2-2.1c0 0-2.1 8.2 4.4 10.2 6.5 1.9 22.8 3.8 24.9 2.6 2.1-1.2 7-1.9 11-4.4 3.9-2.6 3.1-7.1 3.1-7.1z"/>
			</g>
		</g>
		<g>
			<g id="Clip-Path" clip-path="url(#cp2)">
				<path class="s5" d="m164.3 145.3l-2.6-1.2v-4.8h-1.3v-1.7l-0.8-0.9-0.9 0.9v6.8h-1.2v-1.6h-1.2v-3.4l-1.6-0.7v-4.6l-1.4-1.5-1.7 1.5v7.9h-1.4c0 0-0.8-12.2-0.8-16.1h2.4l1.6-1.6h0.4v-0.5c0 0-0.7-1.6-3.7-1.6v-1.4c0 0-0.3-0.9-1.2-0.9l-0.2-2.8-0.1 2.8c-1 0-1.2 0.9-1.2 0.9v1.4c-3 0-3.7 1.6-3.7 1.6v0.5h0.3l1.6 1.6h2.4c0 2.5-0.3 8.4-0.5 12.4h-0.9v1.5h-1.2v-9.7h-1.7v3.7h-0.9v3.8h-0.8v5.1h-1.8v-7h-0.6v-1.7h-2.4v1.7h-0.6v2.9h-1.8v3.7 3h-1.1l-1.1-4.9v-3.4l-1.2-1.2h-1.1l-1.1 1.2v4h-1.3v-1.1h-0.4v-2.2l-0.7-0.8h-2.8v-3.9l-1.4-0.8h-2.8v8.3c0 0 2.9 11.9 14.4 12.2 11.5 0.4 25.8-0.7 25.8-0.7z"/>
			</g>
		</g>
	</g>
</svg>