<svg version="1.2" xmlns="http://www.w3.org/2000/svg" viewBox="55 181 694 241" width="694" height="241">
	<title>
		Johnny
	</title>
	<defs>
		<clipPath clipPathUnits="userSpaceOnUse" id="cp1">
			<path d="m151.68 353.29c-5.1 0-10.21-0.19-15.3 0.05-9.47 0.43-13.28 3.5-15.65 12.67-0.8 3.12-1.35 6.45-1.17 9.64 0.38 6.81 1.21 13.6 2.02 20.39 1.21 10.08 7.13 15.7 16.98 17.63q17.38 3.41 34.66-0.29c8.75-1.88 15.39-6.64 18.58-15.18 3.61-9.65 5.26-19.78 6.22-30.01 0.32-3.37-1.03-6.19-4-7.83-2.62-1.46-5.39-2.79-8.25-3.67-11.1-3.4-22.59-3.74-34.09-3.4z" />
		</clipPath>
		<clipPath clipPathUnits="userSpaceOnUse" id="cp2">
			<path d="m244.55 356.69c-2.86 0.88-5.62 2.21-8.25 3.67-2.97 1.64-4.32 4.46-4 7.83 0.97 10.23 2.62 20.36 6.22 30.01 3.19 8.54 9.84 13.3 18.58 15.18q17.28 3.7 34.67 0.29c9.84-1.93 15.76-7.55 16.97-17.63 0.81-6.79 1.65-13.58 2.03-20.39 0.17-3.19-0.37-6.52-1.18-9.64-2.37-9.17-6.18-12.24-15.64-12.67-5.1-0.24-10.21-0.05-15.31-0.05-11.5-0.34-22.98 0-34.09 3.4z" />
		</clipPath>
	</defs>
	<style>
		.s0 { fill: #555757 }
		.s1 { fill: #494949 }
		.s2 { fill: #908e87 }
		.s3 { fill: #000000 }
		.s4 { fill: none;stroke: #000000;stroke-linecap: round;stroke-linejoin: round;stroke-width: 3 }
		.s5 { fill: none;stroke: #000000;stroke-miterlimit:10;stroke-width: 3 }
		.s6 { fill: #d1d2d3 }
	</style>
	<g id="Layer 1">
		<path id="&lt;Path&gt;" class="s0" d="m311.4 295.2l-7.1-77.9c-1.8-19.7-35-35.9-78.1-35.9h-21.2c-43.2 0-76.4 16.2-78.1 35.9l-7.2 77.9" />
		<path id="&lt;Path&gt;" class="s1" d="m309.3 327.2c47.5 0 61.4-16.8 61.4-26.4 0-9.7-27.5-16.5-61.4-16.5h-192.4c-33.9 0-61.4 6.8-61.4 16.5 0 9.6 13.9 26.4 61.4 26.4z" />
		<path id="&lt;Path&gt;" class="s2" d="m120.2 294.4v-17.2c0-13.1 42.6-23.7 95.2-23.7 52.6 0 95.2 10.6 95.2 23.7v17.2z" />
		<path id="&lt;Path&gt;" class="s1" d="m309.3 319.2c47.5 0 61.4-8.8 61.4-18.4 0-9.7-27.5-16.5-61.4-16.5h-192.4c-33.9 0-61.4 6.8-61.4 16.5 0 9.6 13.9 18.4 61.4 18.4z" />
		<path id="&lt;Path&gt;" class="s0" d="m59.6 308.8c10.7-4.6 31.3-7.4 55-7.4h197c23.7 0 44.3 2.8 55 7.4 2.9-2.5 4.1-5.2 4.1-8 0-9.7-27.5-16.5-61.4-16.5h-192.4c-33.9 0-61.4 6.8-61.4 16.5 0 2.8 1.2 5.5 4.1 8z" />
		<g id="90XsGm.tif">
			<g id="&lt;Group&gt;">
				<path id="&lt;Compound Path&gt;" class="s3" d="m213.2 367.3c-4.2 0.5-7 1-8.2 6.4-1.7 7-3.2 14.1-5 21.1-0.7 2.6-1.7 5.2-2.8 7.6-3.9 8.3-10.1 14-19.3 16-13.6 3-27.3 4.1-41 1.3-2.5-0.5-5-1.4-7.4-2.1-7.2-2.1-11.6-7-13.3-14-1.7-7.4-2.8-14.8-4.3-22.2-0.7-3.6-1.6-7.2-2.5-10.7-0.7-2.8-2.2-4.9-5-6-2.1-0.8-3.3-2.2-3.1-4.7 0.3-2.1 0.1-4.3 0.1-6.4 0-2.7 0.8-3.8 3.5-4.2 4.9-0.6 9.8-1.4 14.7-1.7 7.9-0.5 15.8-1 23.6-1 18.4 0 36.5 1.9 54.4 5.8q8.6 1.8 17.2 1.9h0.8q8.5-0.1 17.1-1.9c17.9-3.9 36.1-5.8 54.4-5.8 7.9 0 15.8 0.5 23.6 1 5 0.3 9.9 1.1 14.8 1.7 2.6 0.4 3.4 1.5 3.4 4.2 0 2.1-0.1 4.3 0.1 6.4 0.2 2.5-1 3.9-3.1 4.7-2.8 1.1-4.3 3.2-5 6-0.9 3.5-1.7 7.1-2.5 10.7-1.4 7.4-2.6 14.8-4.3 22.2-1.7 7-6.1 11.9-13.3 14-2.4 0.7-4.8 1.6-7.3 2.1-13.8 2.8-27.5 1.7-41.1-1.3-9.2-2-15.3-7.7-19.3-16-1.1-2.4-2.1-5-2.8-7.6-1.7-7-3.3-14.1-4.9-21.1-1.3-5.4-4.1-5.9-8.3-6.4-1.8-0.2-3.9 0-3.9 0zm-61.5-14c-5.1 0-10.2-0.2-15.3 0-9.5 0.5-13.3 3.5-15.7 12.7-0.8 3.1-1.3 6.5-1.1 9.7 0.3 6.8 1.2 13.6 2 20.3 1.2 10.1 7.1 15.7 17 17.7q17.3 3.4 34.6-0.3c8.8-1.9 15.4-6.7 18.6-15.2 3.6-9.7 5.3-19.8 6.2-30 0.3-3.4-1-6.2-4-7.8-2.6-1.5-5.4-2.8-8.2-3.7-11.1-3.4-22.6-3.8-34.1-3.4zm92.9 3.4c-2.9 0.9-5.7 2.2-8.3 3.7-3 1.6-4.3 4.4-4 7.8 1 10.2 2.6 20.3 6.2 30 3.2 8.5 9.9 13.3 18.6 15.2q17.3 3.7 34.7 0.3c9.8-2 15.7-7.6 16.9-17.7 0.9-6.7 1.7-13.5 2.1-20.3 0.1-3.2-0.4-6.6-1.2-9.7-2.4-9.2-6.2-12.2-15.7-12.7-5-0.2-10.2 0-15.3 0-11.5-0.4-22.9 0-34 3.4z" />
			</g>
		</g>
		<g id="Johhny 00000128486407641838953660000013141236359391329702 ">
			<path id="J 00000021079143676906958220000013388205166833760958 " class="s4" d="m427.6 264.6v65.7c0 0 0.5 15.8-15 13.1" />
			<path id="O 00000041992532097097608550000011196479910567412357 " class="s4" d="m502.8 295.9c0 17-13.8 30.8-30.8 30.8-17.1 0-30.8-13.8-30.8-30.8 0-17 13.7-30.8 30.8-30.8 17 0 30.8 13.8 30.8 30.8z" />
			<g id="H 00000117645559217675226150000009167580748348355507 ">
				<path id="&lt;Path&gt;" class="s4" d="m516.4 264.6v62.2" />
				<path id="&lt;Path&gt;" class="s4" d="m561.7 264.6v62.2" />
				<path id="&lt;Path&gt;" class="s5" d="m516.3 294.8h45.5" />
			</g>
			<path id="N 00000065771624567391061170000014886660001608057019 " class="s4" d="m580 326.8v-62.2l44.8 62.2v-62.2" />
			<path id="N 00000083792010854693427950000012454044828065392055 " class="s4" d="m643.4 326.8v-62.2l44.8 62.2v-62.2" />
			<g id="Y 00000084527942828549346010000000361820412481018812 ">
				<path id="&lt;Path&gt;" class="s4" d="m699.1 264.9l24.6 37.3v24.6" />
				<path id="&lt;Path&gt;" class="s4" d="m748.4 264.9l-24.7 37.3v24.6" />
			</g>
		</g>
		<g id="&lt;Clip Group&gt;" clip-path="url(#cp1)">
			<path id="&lt;Path&gt;" class="s6" d="m192.4 399.3h-2.8v-7.2l-2.3-2.4h-1.2l-2.3 2.3v6.8l-1.8-1.8v-3.7l-1.6-1.5h-4.3v6.1h-0.9v-13.6l-5.9-0.9-1.1 0.9v14.4h-9.4v-4.9h-3.3v-0.9h-2.1v1h-1.8v4.7h-3.7v4l-1.2-2.8h-7l-1 1.8c0 0-1.4 0.5-1.4 0 0-0.5 0-3.6 0-3.6l-1.3-1.3v-2.2h-3.8v3.2h-2.8v2.1h-1.7v-9.2h-2.6v9.8h-1.7l-3.3-3.4c0 0-3.5 13.6 7.3 16.9 10.8 3.3 38 6.3 41.5 4.4 3.5-2 11.7-3.1 18.2-7.4 6.6-4.2 5.3-11.6 5.3-11.6z" />
		</g>
		<g id="&lt;Clip Group&gt;" clip-path="url(#cp2)">
			<path id="&lt;Path&gt;" class="s6" d="m307.4 404.8l-4.3-2v-8h-2.1v-2.8l-1.4-1.6-1.5 1.6v11.3h-2.1v-2.6h-1.9v-5.7l-2.6-1.2v-7.6l-2.5-2.4-2.7 2.4v13.2h-2.4c0 0-1.2-20.4-1.2-26.9h3.9l2.7-2.7h0.6v-0.7c0 0-1.2-2.8-6.2-2.8v-2.2c0 0-0.4-1.5-2-1.5l-0.2-4.8h-0.1l-0.2 4.8c-1.6 0-2 1.5-2 1.5v2.2c-5 0-6.2 2.8-6.2 2.8v0.7h0.6l2.7 2.7h4c0 4.2-0.5 14.1-0.9 20.6h-1.5v2.5h-2.1v-16.1h-2.8v6.1h-1.5v6.5h-1.3v8.4h-3v-11.6h-1v-2.9h-3.9v2.9h-1.1v4.8h-2.9v6.2 4.9h-1.9l-1.9-8v-5.8l-1.9-2h-1.9l-1.8 2v6.7h-2.1v-1.9h-0.7v-3.7l-1.2-1.2h-4.7v-6.6l-2.4-1.2h-4.5v13.8c0 0 4.8 19.8 23.9 20.4 19.2 0.5 43-1.4 43-1.4z" />
		</g>
		<g id="&lt;Group&gt;">
			<path id="&lt;Compound Path&gt;" class="s0" d="m468 354.6h6.8q1.8 0 3 0.5 1.2 0.5 1.9 1.3 0.7 0.7 0.9 1.7 0.3 0.9 0.3 1.8 0 1-0.3 1.8-0.4 0.9-1 1.5-0.6 0.7-1.4 1.2-0.9 0.5-2 0.6l5.4 8.7h-3.2l-4.9-8.4h-2.9v8.4h-2.6zm2.6 8.4h3.4q0.8 0 1.5-0.1 0.8-0.1 1.4-0.4 0.5-0.4 0.9-1 0.3-0.6 0.3-1.5 0-1-0.3-1.6-0.4-0.6-0.9-1-0.6-0.3-1.4-0.4-0.7-0.1-1.5-0.1h-3.4z" />
			<path id="&lt;Compound Path&gt;" class="s0" d="m486.4 368.2q0 0.8 0.4 1.5 0.4 0.7 0.9 1.2 0.6 0.5 1.4 0.8 0.8 0.2 1.6 0.2 1.2 0 2-0.5 0.9-0.5 1.6-1.4l1.8 1.4q-2 2.6-5.7 2.6-1.5 0-2.7-0.5-1.2-0.5-2.1-1.4-0.8-0.9-1.3-2.1-0.5-1.3-0.5-2.7 0-1.4 0.5-2.7 0.5-1.2 1.4-2.1 0.9-0.9 2.1-1.4 1.2-0.5 2.6-0.5 1.7 0 2.9 0.6 1.2 0.6 2 1.5 0.7 1 1 2.2 0.4 1.2 0.4 2.4v0.9zm7.7-1.9q-0.1-0.9-0.3-1.5-0.2-0.7-0.7-1.2-0.5-0.5-1.1-0.8-0.7-0.3-1.6-0.3-0.9 0-1.7 0.4-0.7 0.3-1.2 0.8-0.5 0.6-0.8 1.2-0.3 0.7-0.3 1.4z" />
			<path id="&lt;Compound Path&gt;" class="s0" d="m500.3 362.5q1.1-1 2.4-1.4 1.4-0.5 2.7-0.5 1.4 0 2.4 0.3 1 0.4 1.7 1 0.6 0.6 0.9 1.3 0.4 0.8 0.4 1.6v6.6q0 0.7 0 1.2 0 0.6 0.1 1.1h-2.2q-0.1-1-0.1-1.9-0.8 1.2-2 1.7-1.1 0.5-2.5 0.5-0.9 0-1.7-0.2-0.8-0.3-1.4-0.7-0.6-0.5-1-1.2-0.3-0.8-0.3-1.7 0-1.2 0.5-2.1 0.6-0.8 1.5-1.3 1-0.6 2.3-0.8 1.2-0.2 2.7-0.2h1.8v-0.6q0-0.5-0.2-0.9-0.2-0.5-0.6-0.9-0.3-0.4-0.9-0.6-0.6-0.3-1.4-0.3-0.7 0-1.2 0.2-0.5 0.1-1 0.3-0.4 0.2-0.7 0.5-0.4 0.2-0.7 0.5zm6.8 5.1q-0.8 0-1.7 0.1-0.9 0.1-1.7 0.3-0.7 0.3-1.2 0.8-0.5 0.5-0.5 1.2 0 1.1 0.8 1.6 0.7 0.5 2 0.5 1 0 1.7-0.3 0.7-0.4 1.1-0.9 0.5-0.6 0.7-1.2 0.1-0.7 0.1-1.3v-0.8z" />
			<path id="&lt;Compound Path&gt;" class="s0" d="m515.2 353.3h2.4v20.4h-2.4z" />
			<path id="&lt;Compound Path&gt;" class="s0" d="m530.9 354.6h12.4v2.4h-9.8v5.7h9.1v2.4h-9.1v6.2h10.2v2.4h-12.8z" />
			<path id="&lt;Compound Path&gt;" class="s0" d="m554.3 364.1q-0.5-0.5-1.1-0.9-0.6-0.3-1.5-0.3-0.9 0-1.5 0.3-0.7 0.4-0.7 1.1 0 0.5 0.4 0.9 0.4 0.4 0.9 0.6 0.5 0.2 1 0.3 0.6 0.1 1 0.2 0.8 0.2 1.5 0.4 0.7 0.3 1.2 0.7 0.4 0.5 0.7 1.1 0.3 0.6 0.3 1.5 0 1.1-0.4 1.9-0.5 0.7-1.2 1.2-0.8 0.5-1.7 0.7-0.9 0.2-1.9 0.2-1.6 0-2.8-0.5-1.2-0.4-2.1-1.7l1.8-1.6q0.6 0.6 1.4 1.1 0.7 0.5 1.7 0.5 0.5 0 1-0.1 0.4-0.1 0.8-0.3 0.4-0.2 0.6-0.5 0.2-0.4 0.2-0.8 0-0.5-0.3-0.9-0.4-0.3-0.8-0.5-0.5-0.2-1-0.3-0.5-0.2-1-0.2-0.7-0.2-1.4-0.5-0.7-0.2-1.3-0.6-0.5-0.4-0.8-1-0.4-0.7-0.4-1.6 0-1 0.5-1.7 0.4-0.8 1.1-1.2 0.6-0.5 1.5-0.8 0.9-0.2 1.8-0.2 1.3 0 2.5 0.5 1.2 0.5 1.9 1.6z" />
			<path id="&lt;Compound Path&gt;" class="s0" d="m567 363h-3.5v5.8q0 0.6 0 1.1 0.1 0.5 0.2 0.9 0.2 0.4 0.6 0.7 0.3 0.3 1 0.3 0.5 0 0.9-0.1 0.5-0.1 0.9-0.3v2.2q-0.5 0.2-1.1 0.3-0.7 0.1-1.1 0.1-1.4 0-2.2-0.4-0.8-0.4-1.1-1-0.4-0.6-0.5-1.4 0-0.7 0-1.5v-6.7h-2.8v-2.1h2.8v-3.6h2.4v3.6h3.5z" />
			<path id="&lt;Compound Path&gt;" class="s0" d="m570.9 362.5q1-1 2.3-1.4 1.4-0.5 2.7-0.5 1.4 0 2.4 0.3 1.1 0.4 1.7 1 0.7 0.6 1 1.3 0.3 0.8 0.3 1.6v6.6q0 0.7 0 1.2 0 0.6 0.1 1.1h-2.2q-0.1-1-0.1-1.9-0.8 1.2-1.9 1.7-1.1 0.5-2.6 0.5-0.9 0-1.7-0.2-0.8-0.3-1.4-0.7-0.6-0.5-1-1.2-0.3-0.8-0.3-1.7 0-1.2 0.5-2.1 0.6-0.8 1.5-1.3 1-0.6 2.3-0.8 1.3-0.2 2.7-0.2h1.8v-0.6q0-0.5-0.2-0.9-0.2-0.5-0.5-0.9-0.4-0.4-1-0.6-0.6-0.3-1.3-0.3-0.7 0-1.3 0.2-0.5 0.1-0.9 0.3-0.5 0.2-0.8 0.5-0.4 0.2-0.7 0.5zm6.9 5.1q-0.9 0-1.8 0.1-0.9 0.1-1.6 0.3-0.8 0.3-1.3 0.8-0.4 0.5-0.4 1.2 0 1.1 0.7 1.6 0.8 0.5 2 0.5 1 0 1.7-0.3 0.7-0.4 1.2-0.9 0.4-0.6 0.6-1.2 0.2-0.7 0.2-1.3v-0.8z" />
			<path id="&lt;Compound Path&gt;" class="s0" d="m592.3 363h-3.4v5.8q0 0.6 0 1.1 0 0.5 0.2 0.9 0.2 0.4 0.5 0.7 0.4 0.3 1.1 0.3 0.4 0 0.9-0.1 0.4-0.1 0.8-0.3v2.2q-0.4 0.2-1.1 0.3-0.7 0.1-1.1 0.1-1.4 0-2.1-0.4-0.8-0.4-1.2-1-0.3-0.6-0.4-1.4-0.1-0.7-0.1-1.5v-6.7h-2.8v-2.1h2.8v-3.6h2.5v3.6h3.4z" />
			<path id="&lt;Compound Path&gt;" class="s0" d="m598 368.2q0 0.8 0.4 1.5 0.3 0.7 0.9 1.2 0.6 0.5 1.4 0.8 0.8 0.2 1.6 0.2 1.1 0 2-0.5 0.8-0.5 1.5-1.4l1.9 1.4q-2.1 2.6-5.7 2.6-1.5 0-2.8-0.5-1.2-0.5-2-1.4-0.9-0.9-1.3-2.1-0.5-1.3-0.5-2.7 0-1.4 0.5-2.7 0.5-1.2 1.4-2.1 0.9-0.9 2.1-1.4 1.2-0.5 2.6-0.5 1.7 0 2.9 0.6 1.2 0.6 1.9 1.5 0.8 1 1.1 2.2 0.3 1.2 0.3 2.4v0.9zm7.7-1.9q0-0.9-0.2-1.5-0.3-0.7-0.7-1.2-0.5-0.5-1.2-0.8-0.7-0.3-1.6-0.3-0.9 0-1.6 0.4-0.8 0.3-1.3 0.8-0.5 0.6-0.8 1.2-0.3 0.7-0.3 1.4z" />
			<path id="&lt;Compound Path&gt;" class="s0" d="m620.6 354.6h6.7q1.2 0 2.3 0.3 1.1 0.3 1.8 0.9 0.8 0.5 1.2 1.4 0.5 1 0.5 2.2 0 1.6-0.9 2.7-0.9 1-2.4 1.5 0.9 0.1 1.6 0.5 0.8 0.4 1.3 1 0.6 0.6 0.9 1.5 0.3 0.8 0.3 1.8 0 1.3-0.5 2.3-0.5 1-1.4 1.6-1 0.7-2.2 1.1-1.2 0.3-2.6 0.3h-6.6zm2.6 7.9h3.6q0.7 0 1.3-0.1 0.7-0.2 1.2-0.5 0.5-0.4 0.7-0.9 0.3-0.5 0.3-1.3 0-1.2-0.7-2-0.7-0.8-2.3-0.8h-4.1zm0 8.9h3.8q0.6 0 1.3-0.1 0.8-0.2 1.4-0.5 0.6-0.4 1-1 0.5-0.6 0.5-1.7 0-1.7-1.1-2.5-1.1-0.9-3-0.9h-3.9z" />
			<path id="&lt;Compound Path&gt;" class="s0" d="m637.7 360.9h2.4v2h0.1q0.2-0.5 0.6-1 0.4-0.4 0.9-0.7 0.5-0.3 1.1-0.4 0.6-0.2 1.2-0.2 0.6 0 1.1 0.1l-0.1 2.7q-0.3-0.1-0.6-0.2-0.3 0-0.6 0-1.8 0-2.7 1-1 1-1 3.1v6.4h-2.4z" />
			<path id="&lt;Compound Path&gt;" class="s0" d="m646.4 367.3q0-1.4 0.5-2.6 0.6-1.2 1.5-2.1 0.9-1 2.1-1.5 1.3-0.5 2.7-0.5 1.4 0 2.7 0.5 1.2 0.5 2.1 1.5 1 0.9 1.5 2.1 0.5 1.2 0.5 2.6 0 1.4-0.5 2.6-0.5 1.3-1.5 2.2-0.9 0.9-2.1 1.4-1.3 0.5-2.7 0.5-1.4 0-2.7-0.5-1.2-0.5-2.1-1.4-0.9-0.9-1.5-2.2-0.5-1.2-0.5-2.6zm2.6 0q0 1 0.3 1.8 0.3 0.8 0.8 1.4 0.6 0.6 1.3 0.9 0.8 0.4 1.8 0.4 1 0 1.8-0.4 0.7-0.3 1.3-0.9 0.5-0.6 0.8-1.4 0.3-0.8 0.3-1.8 0-1-0.3-1.8-0.3-0.8-0.8-1.4-0.6-0.6-1.3-0.9-0.8-0.3-1.8-0.3-1 0-1.8 0.3-0.7 0.3-1.3 0.9-0.5 0.6-0.8 1.4-0.3 0.8-0.3 1.8z" />
			<path id="&lt;Compound Path&gt;" class="s0" d="m663.7 353.3h2.5v13.2l5.5-5.6h3.3l-5.9 5.8 6.5 7h-3.5l-5.9-6.6v6.6h-2.5z" />
			<path id="&lt;Compound Path&gt;" class="s0" d="m678.9 368.2q0 0.8 0.4 1.5 0.3 0.7 0.9 1.2 0.6 0.5 1.4 0.8 0.8 0.2 1.6 0.2 1.2 0 2-0.5 0.8-0.5 1.5-1.4l1.9 1.4q-2.1 2.6-5.7 2.6-1.5 0-2.7-0.5-1.3-0.5-2.1-1.4-0.9-0.9-1.3-2.1-0.5-1.3-0.5-2.7 0-1.4 0.5-2.7 0.5-1.2 1.4-2.1 0.9-0.9 2.1-1.4 1.2-0.5 2.6-0.5 1.7 0 2.9 0.6 1.2 0.6 1.9 1.5 0.8 1 1.1 2.2 0.4 1.2 0.4 2.4v0.9zm7.6-1.9q0-0.9-0.2-1.5-0.3-0.7-0.7-1.2-0.5-0.5-1.2-0.8-0.6-0.3-1.6-0.3-0.9 0-1.6 0.4-0.7 0.3-1.3 0.8-0.5 0.6-0.8 1.2-0.2 0.7-0.2 1.4z" />
			<path id="&lt;Compound Path&gt;" class="s0" d="m692.8 360.9h2.4v2q0.3-0.5 0.7-1 0.4-0.4 0.9-0.7 0.5-0.3 1.1-0.4 0.6-0.2 1.2-0.2 0.6 0 1.1 0.1l-0.2 2.7q-0.2-0.1-0.5-0.2-0.3 0-0.6 0-1.8 0-2.8 1-0.9 1-0.9 3.1v6.4h-2.4z" />
		</g>
	</g>
</svg>
